<?xml version="1.0" encoding="UTF-8" standalone="no"?>
<!-- Created with Inkscape (http://www.inkscape.org/) -->

<svg
   width="450"
   height="300"
   viewBox="0 0 450 300"
   version="1.1"
   id="svg5"
   xmlns="http://www.w3.org/2000/svg"
   xmlns:svg="http://www.w3.org/2000/svg">
  <defs
     id="defs2" />
  <g
     id="layer1">
    <g
       id="g1691"
       transform="matrix(2.2438592,0,0,2.1373437,-21.569406,-118.87225)">
      <path
         id="path282"
         d="M 20.994854,110.41847 C 21.020994,110.57202 21.030974,110.72922 21.073264,110.87913 21.531502,112.50346 22.418091,114.07059 23.295203,115.49814 24.420029,117.29707 26.041592,118.63318 27.740143,119.85926 28.462243,120.32463 29.165043,120.82659 29.915772,121.24662 30.248816,121.43296 33.061834,123.81852 34.432164,123.32636 34.713062,123.22548 34.943485,123.01834 35.199143,122.86433 35.521956,122.53955 35.872265,122.23996 36.167582,121.88999 36.526378,121.4648 39.776364,117.17491 39.821742,117.11438 42.314146,113.7894 44.740098,110.41534 47.175114,107.04836 50.975652,101.81894 54.637324,96.491527 58.282544,91.153423 59.869854,88.772541 61.559808,86.460247 63.432061,84.295214 63.535182,84.180845 63.637229,84.065498 63.741427,83.95211 63.808317,83.87933 63.871536,83.802557 63.945286,83.736737 63.978746,83.706867 64.017146,83.678627 64.060549,83.667307 64.076659,83.663107 64.115779,83.704427 64.101409,83.696017 60.645446,81.673204 61.329195,80.53581 60.625559,81.781109 60.199615,82.401737 59.851748,83.075289 59.490719,83.735599 58.891615,84.807013 58.387732,85.92632 57.827712,87.017687 56.768612,88.909357 55.588959,90.731114 54.46684,92.586322 53.052571,94.96386 51.8584,97.464362 50.660589,99.955483 48.943446,103.26306 47.890494,106.85417 46.830555,110.41179 46.304439,112.44292 45.59857,114.47285 45.432809,116.57767 45.369509,117.28124 45.516279,117.94677 45.760469,118.59982 46.034707,119.23395 46.255518,119.88982 46.51814,120.52824 47.267885,122.06391 49.166408,122.88994 50.825277,122.88672 51.036173,122.87872 51.429381,122.87192 51.620365,122.82172 52.597416,122.56457 53.463511,121.90589 54.27316,121.33698 56.014735,119.96407 57.539774,118.35239 58.982592,116.67572 60.160515,115.329 61.158647,113.84014 62.280417,112.45024 62.389931,112.3246 62.494502,112.19447 62.608958,112.07332 62.673068,112.00542 63.027942,111.66104 63.080948,111.66672 63.134958,111.67272 63.113188,111.85456 63.065308,111.82891 59.541244,109.94041 60.174915,108.62426 59.573216,110.13573 58.980144,111.49584 58.38343,112.85587 57.864857,114.24652 57.400209,115.42212 57.097089,116.64923 56.76241,117.86524 56.610364,118.5092 56.423976,119.18316 56.564935,119.84174 57.351473,121.30337 59.610919,122.63877 61.343585,122.09136 62.199348,121.821 62.854851,121.36364 63.637978,120.91063 64.193018,120.55147 64.764135,120.21601 65.303101,119.83315 68.104724,117.84299 70.673606,115.50015 73.176501,113.1533 73.836879,112.52025 74.493607,111.88501 75.167641,111.26686 75.261251,111.18096 75.343623,111.08214 75.444821,111.00538 75.482061,110.97718 75.61702,110.97988 75.576377,110.95678 74.443225,110.31292 73.275616,109.73169 72.125234,109.11915 72.128634,109.19215 72.147304,109.26609 72.135504,109.33824 72.088144,109.62759 71.879335,110.24505 71.801036,110.49028 71.521039,111.36723 71.24503,112.23079 71.011583,113.12201 70.393339,115.66307 69.940677,118.24303 69.446427,120.8109 68.867397,124.27247 68.089128,127.69568 67.111091,131.06532 65.978084,134.71109 64.43175,138.21643 62.553291,141.53652 61.343693,143.53051 59.732941,145.21343 57.954663,146.70352 57.539183,147.0011 57.056416,147.34183 56.509742,147.29967 55.849143,147.24877 51.182806,144.54687 58.338084,148.4081 57.260587,147.4144 56.668457,146.01371 56.480667,144.56954 56.422457,144.12188 56.418667,143.66882 56.387667,143.21846 56.459547,142.67762 56.481487,142.12776 56.60331,141.59594 57.382561,138.19411 59.571401,135.37664 61.659463,132.67965 64.085965,129.73007 66.813687,127.04507 69.667655,124.51319 71.597819,122.79068 73.655701,121.22159 75.641624,119.56547 77.086473,118.39671 78.423103,117.11381 79.733643,115.79916 80.818686,114.70407 81.836961,113.53896 83.013288,112.5385 83.404758,112.24933 83.799942,111.975 84.111224,111.59864 84.400401,111.20218 84.749505,110.87462 85.145563,110.58862 85.573439,110.11729 85.986144,109.63261 86.422614,109.16781 86.98788,108.65678 87.515084,108.1067 88.070391,107.58524 88.541355,107.16193 88.9528,106.67959 89.50813,106.36664 88.360419,105.73402 87.241531,105.04604 86.065019,104.46876 86.008109,104.44086 86.032939,104.59152 86.013019,104.65171 85.967889,104.78812 85.914529,104.92173 85.869959,105.05833 85.656162,105.71354 85.450451,106.37119 85.23322,107.02544 84.919467,107.94686 84.628859,108.874 84.346993,109.80524 84.091895,110.58838 83.972256,111.40095 83.877323,112.21607 83.802983,112.97979 83.697386,113.74363 83.744799,114.5115 83.843079,114.96435 83.893664,115.87754 84.349292,116.15241 85.544161,116.87325 86.769904,117.54163 87.980209,118.23624 88.844145,118.32034 89.59406,117.86977 90.26063,117.37515 91.45948,116.38794 92.42903,115.17199 93.42648,113.99185 94.39855,112.76248 95.30648,111.4863 96.2382,110.22728 96.96429,109.26097 97.66062,108.27226 98.41867,107.33041 98.78567,106.81037 99.23173,106.35447 99.69495,105.92066 99.93079,105.66166 100.17619,105.46478 100.52744,105.42067 100.70393,105.37657 100.87288,105.25273 101.05803,105.23909 101.14383,105.23309 101.35734,105.40911 101.28187,105.36775 100.18262,104.76534 99.09941,104.1341 98.00818,103.51728 98.04808,103.60768 98.10198,103.69307 98.12799,103.78838 98.35616,104.6244 98.30119,105.82582 98.30949,106.69749 98.30249,107.38762 98.28359,108.07771 98.25749,108.76738 98.24749,108.96402 98.23799,109.16103 98.24109,109.35796 98.24609,109.62689 98.25129,109.89584 98.24609,110.16482 98.14093,111.63804 98.17779,110.5172 101.72463,112.31636 101.74263,112.32536 102.34262,111.87668 102.57277,111.72253 103.13535,111.28097 103.81832,111.05843 104.48759,110.83477 105.24029,110.62687 106.07784,110.42291 106.82734,110.76437 106.96849,110.82867 107.0927,110.92502 107.22538,111.00535 102.46786,108.24954 104.3402,109.01344 105.2334,110.56429 105.65072,111.28887 105.92561,112.07185 106.19008,112.8603 106.7635,114.61774 106.52136,116.38358 106.07981,118.13286 105.66056,119.71038 104.91355,121.16856 104.11764,122.58391 103.01483,124.44595 101.47732,125.97516 99.90979,127.4433 98.23979,128.92197 96.27589,130.00314 94.34003,131.08764 93.20256,131.63276 91.87247,132.44039 90.54368,132.17048 90.40734,132.14278 90.27998,132.08168 90.14812,132.03732 88.781836,131.12213 90.55496,132.32078 92.95684,133.59137 93.03944,133.63507 92.822,133.46012 92.77011,133.38246 92.56852,133.08074 92.55047,132.7287 92.52557,132.38073 92.62167,130.93149 93.30007,129.60233 94.01748,128.36894 94.87067,127.03229 95.92633,125.84562 96.97311,124.66099 97.84568,123.75418 98.68473,122.81678 99.56311,121.91545 100.28843,121.03868 101.1334,120.27643 101.91663,119.45501 103.077,118.31991 104.14825,117.09935 105.26607,115.92237 107.29527,114.01822 109.34423,112.12508 111.52905,110.39839 112.50729,109.62528 113.69025,108.78029 114.70495,108.0432 116.2356,107.06723 117.69589,105.93622 119.36844,105.20509 119.86281,104.97031 120.40618,104.89683 120.93265,104.76599 121.29031,104.66999 121.65766,104.62738 122.0268,104.61494 122.29807,104.61394 122.56942,104.61094 122.8407,104.61294 123.00584,104.65594 123.21297,104.56524 123.37442,104.61594 123.45452,104.64134 123.5158,104.70834 123.59327,104.74085 123.69602,104.81155 124.14062,104.81105 124.21336,104.89356 124.22706,104.90906 124.20836,104.93456 124.20636,104.95506 121.96739,103.03126 121.72273,102.53509 119.65027,102.36176 119.13459,102.31106 118.61605,102.29786 118.0982,102.29106 117.6328,102.27296 117.20683,102.48944 116.81226,102.71362 116.33302,103.08258 115.9323,103.53938 115.5994,104.04167 115.23858,104.69482 114.92495,105.3822 114.69436,106.09239 114.50713,106.80049 114.42152,107.53148 114.31077,108.2549 114.21137,108.88701 114.16894,109.52536 114.14708,110.16419 114.09928,110.62357 114.16618,111.06808 114.26083,111.51557 114.81968,113.16481 116.96807,114.2079 118.67792,114.05195 118.79079,114.02505 118.91084,114.01915 119.01654,113.97125 119.81159,113.61107 120.4942,112.82466 121.04649,112.17615 121.79881,111.3757 122.25454,110.39749 122.70384,109.41158 123.05978,108.60143 123.41096,107.79169 123.82664,107.01054 123.94616,106.72542 124.12709,106.50096 124.31716,106.26733 124.4493,106.10504 124.44159,105.87712 124.55562,105.71061 124.65462,105.51941 124.70404,105.32063 124.84484,105.15461 124.07824,106.54766 124.91144,105.21971 121.38253,103.34481 121.30413,103.30311 121.37353,103.52224 121.36463,103.61062 121.34623,103.79893 121.32493,103.98696 121.30163,104.17472 121.25133,104.57907 121.16609,105.16354 121.10867,105.56602 120.98946,106.43689 120.86262,107.307 120.76791,108.18094 120.70731,108.52343 120.73941,108.82741 120.9273,109.12192 123.69839,110.79607 124.03948,111.65526 126.58056,110.941 128.23837,110.3836 129.65948,109.37851 131.0279,108.31878 131.65938,107.7997 132.25339,107.23802 132.85009,106.68009 132.85009,106.68009 129.59754,104.68305 129.59754,104.68305 V 104.68305 C 129.04422,105.25543 128.48343,105.82135 127.86217,106.32173 126.51227,107.35158 125.08627,108.30721 123.42796,108.75988 122.89282,108.86061 122.42466,108.92466 121.88218,108.84878 121.7766,108.83398 121.6709,108.81588 121.56859,108.78598 121.49929,108.76568 121.30827,108.66198 121.37028,108.69898 122.44344,109.33885 123.5257,109.96334 124.6034,110.59552 124.28835,110.51282 124.24026,110.29532 124.26395,109.99162 124.28625,109.10623 124.36375,108.22276 124.47926,107.34479 124.57236,106.70684 124.67112,106.07867 124.83018,105.45335 124.85448,105.35775 124.98687,105.22929 124.90938,105.16826 121.67948,102.62418 122.36897,101.83452 121.42867,103.12237 121.29771,103.30701 121.20598,103.49993 121.12245,103.70808 121.01839,103.878 120.97712,104.04892 120.90585,104.23117 120.70542,104.49272 120.5408,104.75752 120.42668,105.07192 120.03807,105.87514 119.71274,106.70437 119.34994,107.5194 118.92236,108.47451 118.45277,109.40437 117.74606,110.18997 117.16654,110.87149 116.46986,111.69122 115.51204,111.74047 115.41894,111.72617 115.32425,111.71977 115.23271,111.69757 115.15361,111.67837 114.93256,111.57446 115.00222,111.61667 116.05483,112.25378 117.12454,112.8622 118.1857,113.48496 118.02608,113.42946 117.90364,113.38876 117.83014,113.22329 117.70517,112.80747 117.59449,112.39389 117.63897,111.95492 117.64987,111.32737 117.67297,110.69914 117.75888,110.0766 117.86067,109.37212 117.9695,108.6667 118.11473,107.97055 118.32667,107.29356 118.61837,106.63886 118.96994,106.02287 119.28307,105.58321 119.64223,105.16387 120.10335,104.87331 120.48446,104.69808 120.85629,104.56624 121.28436,104.61365 121.78793,104.62265 122.29136,104.64035 122.79257,104.69375 125.02421,104.96013 125.06944,105.4239 121.10268,102.44275 120.94729,102.5517 120.63185,102.33155 120.4636,102.31197 120.19654,102.24607 119.91373,102.30127 119.6395,102.28557 119.36219,102.28657 119.08421,102.27757 118.80816,102.31087 118.43198,102.35197 118.06201,102.43039 117.69794,102.53368 117.15394,102.67013 116.59786,102.76817 116.10946,103.0638 114.56933,103.97249 113.20265,105.14143 111.74472,106.17035 108.49144,108.70054 105.30167,111.30565 102.21668,114.04012 101.81238,114.38195 101.39614,114.71014 101.00378,115.06563 100.17393,115.81751 99.45481,116.69499 98.62302,117.44667 97.84177,118.26726 97.01243,119.04179 96.29292,119.91983 95.42504,120.83875 94.54727,121.74812 93.6988,122.6852 92.66136,123.90222 91.64438,125.1424 90.77599,126.48834 89.98723,127.75287 89.29038,129.13533 89.06042,130.6229 88.99832,133.00425 90.55285,133.48477 93.24063,134.39184 94.75302,134.59088 96.13493,133.7959 97.41729,133.08864 99.37174,131.96898 101.42385,130.94862 103.08009,129.39573 104.64851,127.87659 106.18193,126.29971 107.38418,124.46584 108.20973,123.02637 108.98156,121.54251 109.39682,119.92525 109.83865,118.12465 110.12404,116.29032 109.6026,114.46738 109.2797,113.40357 108.89819,112.35801 108.30936,111.40797 108.18818,111.21246 108.10951,110.96849 107.91984,110.83838 106.7245,110.01842 105.43905,109.33825 104.19866,108.58818 104.04873,108.53068 103.90401,108.45717 103.74887,108.41581 102.92524,108.19627 102.07125,108.43091 101.27805,108.65367 100.56876,108.88138 99.87706,109.15537 99.27337,109.60234 99.08365,109.72068 98.84911,109.92129 98.62641,109.97793 98.59011,109.98693 98.4831,109.94383 98.51498,109.96353 101.78232,111.97654 103.152,111.99373 101.77952,111.96432 101.77452,111.69738 101.77899,111.43045 101.78452,111.16358 101.78852,110.96282 101.78052,110.76189 101.77442,110.56125 101.75682,109.85151 101.74172,109.1417 101.72372,108.43196 101.71122,107.32342 101.71472,106.21299 101.62366,105.10734 98.19513,102.9698 99.27,102.59363 97.26871,103.17775 96.89361,103.31693 96.60745,103.56726 96.33827,103.85995 95.88954,104.3264 95.44865,104.80269 95.09474,105.34777 94.36113,106.31065 93.68852,107.31765 92.97391,108.29456 92.06055,109.55659 91.13773,110.81023 90.17982,112.03939 89.2051,113.19924 88.259608,114.40758 87.017101,115.29863 86.378715,115.68059 85.669885,116.10922 84.915026,115.79671 85.939199,116.40425 86.963372,117.01179 87.987545,117.61932 87.811203,117.51762 87.661293,117.45738 87.540635,117.28136 87.337554,116.9851 87.328418,116.59179 87.238878,116.25764 87.169188,115.50999 87.245278,114.75558 87.298228,114.00875 87.390728,113.2169 87.552434,112.442 87.775325,111.67641 88.041943,110.73894 88.262306,109.78785 88.571427,108.86171 88.781215,108.21989 88.99357,107.57746 89.26106,106.95659 89.31616,106.8287 89.37921,106.70433 89.4421,106.58007 89.4877,106.48987 89.6688,106.37223 89.58658,106.31338 88.50114,105.53651 87.305062,104.92718 86.164303,104.23408 85.678369,104.64968 85.241746,105.11498 84.766642,105.54257 84.197679,106.06269 83.648431,106.60132 83.102698,107.14552 82.674518,107.59573 82.248777,108.04879 81.808277,108.48678 81.419422,108.81537 81.053307,109.16627 80.727065,109.55821 80.418932,109.89911 80.062321,110.18958 79.72856,110.50458 78.629602,111.58244 77.633232,112.76016 76.536174,113.84004 75.235929,115.14823 73.879223,116.39034 72.481294,117.59358 70.5456,119.28371 68.535576,120.88832 66.664155,122.65163 63.856409,125.25258 61.089416,127.91235 58.719421,130.92932 56.228001,134.18904 53.751842,137.39347 53.143864,141.57606 53.137464,142.03057 53.094644,142.48604 53.124654,142.9396 53.146934,143.27642 53.226317,143.60756 53.300094,143.93695 53.552456,145.06369 53.993029,146.13656 54.792846,146.98622 54.971242,147.09503 58.084856,149.68967 59.686307,149.5097 60.269049,149.4442 60.748532,149.06197 61.179676,148.70327 62.870136,147.08137 64.458202,145.34207 65.677061,143.32912 67.462395,139.92836 68.844216,136.3407 70.180441,132.74399 70.368401,132.1482 70.574001,131.55768 70.744321,130.95661 71.530753,128.18123 71.980444,125.31839 72.628692,122.51068 73.144703,119.96766 73.624901,117.41176 74.276829,114.90032 74.700445,113.5159 75.192287,112.15714 75.728203,110.81227 74.563074,110.15489 73.426768,109.44358 72.232809,108.84013 72.205879,108.82653 72.084348,109.03253 71.893452,109.26464 71.325859,109.95477 70.722779,110.61685 70.123418,111.27898 67.30341,114.21478 64.280333,117.03215 60.655373,118.95037 59.739102,119.35725 59.169073,119.70637 58.219648,119.85852 58.025319,119.88962 57.82464,119.88082 57.629225,119.85752 57.49503,119.84152 57.127196,119.6682 57.24071,119.74155 58.187956,120.35362 61.477989,122.30646 60.140102,121.48531 60.097152,121.43141 60.036028,121.38801 60.011244,121.32371 59.859823,120.93099 60.135421,120.12249 60.17786,119.71276 60.460451,118.48858 60.701291,117.25044 61.162928,116.07635 61.668436,114.70007 62.265269,113.35511 62.969418,112.0684 63.829431,110.60337 63.368426,111.63881 59.873042,109.44492 59.817092,109.40982 59.784872,109.54332 59.739988,109.59177 59.571171,109.77404 59.45694,109.88309 59.292155,110.0884 59.186776,110.2197 59.090762,110.35824 58.990067,110.49316 57.951199,111.93242 56.976172,113.41925 55.814381,114.76687 54.395696,116.42864 52.877456,118.0162 51.108896,119.31262 50.053722,119.99457 48.962475,120.72136 47.6484,120.55173 47.514241,120.53663 47.387857,120.53113 47.25954,120.48493 47.20891,120.46673 47.069505,120.38406 47.115773,120.41153 48.195281,121.05242 49.278279,121.68742 50.35953,122.32536 50.171205,122.24906 50.256076,122.30726 50.111774,122.14116 49.72466,121.57832 49.591167,120.85626 49.309055,120.23985 49.047504,119.63582 48.869056,118.99988 48.853853,118.33764 48.856453,116.21558 49.424876,114.12968 49.879499,112.07298 50.328902,110.42655 50.474502,109.78725 51.044677,108.14766 51.809352,105.94876 52.766384,103.81908 53.772171,101.72191 54.986386,99.251463 56.230626,96.791894 57.663544,94.439328 58.784575,92.573285 59.953645,90.738645 61.129202,88.906591 61.712923,87.832034 62.23625,86.726456 62.839852,85.662471 63.209607,85.01619 63.566578,84.352271 64.047323,83.780093 64.909552,82.560817 64.26354,83.57193 60.78419,81.495099 60.74846,81.473769 60.72304,81.551749 60.69533,81.582789 60.57786,81.714327 60.519805,81.810394 60.413035,81.964196 60.325865,82.08976 60.238892,82.215453 60.15182,82.34108 58.5298,84.690368 56.899117,87.035873 55.390074,89.460107 51.935907,94.905861 48.457522,100.3396 44.711779,105.59154 42.273504,108.95994 39.843327,112.33408 37.18224,115.53305 35.830606,117.15788 34.612128,118.55142 33.074801,119.97052 32.752433,120.2681 32.386808,120.51509 32.042812,120.78737 31.805828,120.88037 31.582985,121.02456 31.331858,121.06626 31.146526,121.09706 30.620259,120.88808 30.772349,120.99836 31.618336,121.61182 32.568304,122.06736 33.46118,122.61031 33.679697,122.74319 33.01491,122.36023 32.795597,122.22867 32.413742,121.99961 31.559522,121.45207 31.20071,121.22366 29.494663,120.04178 27.853215,118.74352 26.692657,116.99369 25.745192,115.53902 24.807165,113.94419 24.513723,112.21078 24.513723,112.21078 20.995098,110.41795 20.995098,110.41795 Z" />
      <path
         id="path288"
         d="M 88.724405,95.568234 C 88.763365,96.045452 88.736605,96.510857 88.630305,96.976682 88.572305,97.302371 88.351021,97.543489 88.166839,97.805778 88.166839,97.805778 91.54087,99.806843 91.54087,99.806843 V 99.806843 C 91.77369,99.512713 92.04781,99.226923 92.10506,98.841033 92.20476,98.351133 92.27032,97.866799 92.25059,97.364916 92.25059,97.364916 88.724406,95.568234 88.724405,95.568234 Z" />
      <path
         id="path312"
         d="M 40.837802,167.94859 C 42.797774,165.69661 44.755429,163.44272 46.718076,161.19295 47.582528,160.12207 48.731119,159.23003 49.328686,157.96634 49.552732,157.31256 49.694829,156.63506 49.842552,155.96116 49.972732,155.27092 50.164269,154.59568 50.420761,153.94208 50.537588,153.69561 50.631465,153.44214 50.699558,153.17824 50.793198,152.9459 50.93835,152.7351 51.076592,152.52691 51.346414,152.18532 51.386784,152.37575 47.686626,150.76036 47.598846,150.72206 47.703026,150.95153 47.701576,151.0473 47.692776,151.62551 47.652706,151.82603 47.583609,152.43688 47.360248,154.20375 47.154026,155.9727 46.94451,157.74131 46.833568,158.76316 46.73768,159.78705 46.680509,160.81342 46.659339,161.33465 46.818545,161.79897 47.063721,162.2488 47.203506,162.52146 47.439691,162.73039 47.587668,162.99584 51.044391,165.36737 49.80763,165.03953 51.447645,164.95567 51.466165,164.95467 51.489155,164.96467 51.503215,164.95267 51.549725,164.91267 51.576535,164.85407 51.618131,164.80893 51.653711,164.77033 51.983473,164.59252 52.047058,164.54603 52.498744,164.25888 52.977402,164.02043 53.443701,163.75875 54.017883,163.3857 54.422516,162.83393 54.850048,162.31213 55.231286,161.80759 55.711852,161.38834 56.099591,160.8908 56.424248,160.47146 56.64912,159.98838 56.916362,159.53291 57.185414,159.19129 57.288194,158.75777 57.5467,158.41258 57.62654,158.14726 57.654891,158.47298 57.627,158.45788 56.484915,157.83927 55.38246,157.14946 54.242373,156.52719 54.210173,156.50959 54.279193,156.59409 54.279543,156.63079 54.280337,156.72409 54.257183,156.81612 54.246013,156.90879 54.05015,157.98721 53.803196,159.05528 53.608682,160.13401 53.522902,161.0174 53.172633,161.88843 53.256064,162.78213 54.7477,166.08881 56.861819,165.42332 58.635784,164.21759 59.437365,163.59766 60.175386,162.9066 60.848005,162.1502 61.532918,161.33716 62.096838,160.43819 62.671071,159.54695 63.09818,158.8786 63.495028,158.19458 63.941635,157.53923 64.286066,157.0094 64.700161,156.54208 65.225771,156.18917 65.683577,155.76511 66.292965,155.67747 66.870138,155.50882 67.477357,155.32815 68.100157,155.21916 68.729651,155.15728 70.384585,154.95892 66.293222,153.26809 65.520626,152.81906 65.517726,152.81706 64.886372,153.02604 64.759986,153.06768 63.495994,153.6931 62.583338,154.71392 61.842777,155.88617 61.212225,157.12636 60.721838,158.43049 60.440051,159.79274 60.283484,160.7619 60.121297,161.75105 60.255653,162.73079 60.307863,162.86013 60.343233,162.99762 60.412291,163.11881 60.555923,163.37087 60.804676,163.63157 61.055067,163.77698 62.302795,164.50157 63.495179,165.35096 64.835341,165.88558 65.066381,165.97778 66.949143,165.25965 66.986499,165.24644 70.015462,163.88985 72.45124,161.60541 74.817396,159.33697 76.349688,157.77964 77.84909,156.19149 79.383784,154.63685 79.745779,154.22103 80.105361,153.86713 80.624939,153.67839 80.941016,153.58759 81.270446,153.57671 81.595976,153.55247 80.464411,152.82667 79.361829,152.05356 78.201282,151.37506 78.140372,151.33946 77.64716,151.63543 77.545562,151.6947 76.72551,152.17312 75.94087,152.70059 75.155668,153.23346 73.83453,154.15512 72.551356,155.18462 71.593292,156.49579 71.411682,156.74433 71.256768,157.01133 71.088504,157.2691 70.279511,158.57014 69.83454,160.02651 69.55386,161.52025 69.52034,161.7278 69.451561,162.06872 69.46153,162.29185 69.46803,162.43774 69.52607,162.76154 69.672411,162.85311 73.057046,164.97087 71.978591,164.7253 73.735938,165.04746 75.494917,165.19015 76.602243,164.16294 77.773969,162.99724 78.757563,161.92483 79.637231,160.72784 80.240126,159.39612 80.561084,158.68716 80.657996,158.28339 80.879743,157.54988 81.211576,156.40374 81.427804,155.22879 81.619526,154.05243 81.901032,152.64207 82.725003,153.3339 78.151463,152.35925 77.915336,152.30895 78.135933,152.84192 78.121523,153.08292 78.090693,153.59848 78.016597,154.4281 77.973163,154.93772 77.881523,156.23826 77.676176,157.53752 77.722425,158.84372 77.724025,159.43049 77.85985,159.96818 78.098758,160.49848 78.433498,161.15849 78.843163,161.77648 79.367266,162.29998 80.70888,163.35528 82.265477,165.3764 83.999921,164.75628 84.815219,164.40185 85.303002,163.63528 85.813534,162.94604 86.553309,161.96376 87.203615,160.91569 87.837636,159.86289 88.167487,159.3721 88.534676,158.90957 88.876904,158.42735 89.12578,158.07526 89.38574,157.7243 89.6013,157.35034 89.78208,157.04836 89.8167,156.69319 89.91173,156.3601 90.01588,155.9657 90.13592,155.57123 90.30057,155.19736 90.47465,154.81968 90.65867,154.4495 90.79606,154.05631 90.91803,153.70092 91.081,153.35968 91.25895,153.0286 92.11443,151.53103 92.5047,152.16581 88.05686,150.67254 87.842441,150.60054 87.928828,151.1064 87.864812,151.32333 87.001135,153.99705 86.224586,156.69725 85.431193,159.39233 84.634988,162.43216 83.414372,165.32413 82.263768,168.23903 81.344344,170.4338 80.536433,172.67112 79.711084,174.90201 79.459343,175.58571 79.17475,176.25628 78.905118,176.93291 78.795588,177.20777 78.702865,177.49208 78.535609,177.73802 82.535521,179.84878 81.732119,180.93184 82.064674,179.27211 82.181485,178.68912 82.323471,178.11453 82.476003,177.54004 82.825875,176.32491 83.22425,175.12603 83.649047,173.93534 83.902764,173.17755 84.164177,172.4241 84.460574,171.68195 84.794545,170.86015 84.997551,169.99461 85.281555,169.15562 85.584273,168.41619 85.853936,167.66323 86.177659,166.93256 86.592648,166.17256 86.852841,165.34343 87.183819,164.54562 87.560607,163.57092 87.991148,162.61927 88.541089,161.72962 88.864847,161.2027 89.23969,160.70556 89.63783,160.23227 89.94317,159.79838 90.34305,159.44534 90.71981,159.07586 91.38071,158.57057 92.06879,158.09777 92.78512,157.67029 93.42048,157.37896 94.04115,157.03061 94.70929,156.81646 95.03515,156.71611 95.38019,156.72416 95.71764,156.72846 96.001,156.66696 96.1692,156.89136 96.4224,156.95331 97.76329,157.30583 96.60436,157.01091 93.1975,155.09824 92.92041,154.94268 93.42632,155.2521 93.46496,155.27396 94.63442,155.93563 95.80534,156.59472 96.97553,157.25511 98.34103,157.46971 97.13749,157.29271 93.73208,155.38422 93.66848,155.34852 93.85132,155.46872 93.91485,155.50464 97.45598,157.50466 96.12154,157.2007 97.55287,157.51407 97.81641,157.50327 97.94651,157.64942 98.18134,157.76789 97.07381,157.12468 95.96522,156.48328 94.85875,155.83825 94.83295,155.82325 94.91805,155.85645 94.93895,155.87775 95.04082,155.98167 95.04215,156.17843 95.0558,156.31329 94.9438,157.88187 97.53003,159.01968 98.95898,158.53457 99.85007,158.18105 100.46314,157.3701 101.11042,156.69518 101.97216,155.74224 102.78219,154.74678 103.49199,153.67575 104.33272,152.41785 105.15276,151.14362 105.91642,149.83724 106.67088,148.63002 107.53046,147.4949 108.36507,146.34333 108.99893,145.39803 109.78531,144.5372 110.28104,143.50535 110.30084,143.44845 110.39276,143.36479 110.34054,143.33469 109.16732,142.65799 107.9967,141.95407 106.7355,141.46035 106.58933,141.40315 106.50191,141.67176 106.40208,141.7929 105.7162,142.62525 105.12516,143.553 104.51258,144.4388 103.56786,145.81183 102.70825,147.24183 101.99884,148.75033 101.61703,149.60453 101.29639,150.48587 101.02867,151.38206 100.74826,152.22903 100.5297,153.0981 100.35837,153.97356 100.18651,154.79056 99.99004,155.60176 99.81388,156.41776 99.63054,157.13671 99.49143,157.86528 99.32859,158.58883 99.18888,159.21924 99.11575,159.86367 99.07385,160.50748 99.05015,160.84428 99.04135,161.18184 99.03515,161.5193 98.80877,163.1065 101.2021,164.03971 102.72413,163.89826 103.47893,163.68516 104.15475,163.22951 104.79189,162.78264 105.49106,162.25118 106.12873,161.64185 106.7639,161.0364 107.20698,160.63361 107.69605,160.2901 108.21269,159.98717 108.80354,159.64386 109.31929,159.19447 109.82236,158.73644 110.57047,158.04969 111.21017,157.25323 111.80988,156.43652 112.09164,156.03674 112.3581,155.59054 112.82187,155.38726 113.00911,155.23907 113.1034,155.05652 113.15246,154.82756 113.47206,153.37367 110.17342,151.62621 109.49864,153.00677 109.27049,153.55607 109.05034,154.10845 108.84284,154.66591 108.59515,155.55768 108.64034,156.50133 108.61454,157.41889 108.56674,158.24715 108.51297,158.70017 108.96012,159.42132 110.04393,160.88603 111.84579,161.47045 113.40386,162.3746 113.82219,162.5951 114.28968,162.64245 114.73925,162.77061 115.21656,162.83941 115.70538,163.02199 116.19363,163.00485 116.49079,162.99445 116.90994,162.88269 117.19175,162.81811 118.70019,162.10447 119.79377,160.819 120.80554,159.53287 121.56655,158.53135 121.97184,157.36675 122.26277,156.15972 122.47709,155.34846 122.16367,154.86714 121.45269,154.46114 120.2114,153.75234 118.95629,153.06803 117.70809,152.37148 116.59344,152.07206 115.40781,152.08812 114.2586,152.0546 113.55754,152.0897 112.85602,152.1305 112.20937,152.41707 111.64701,152.73466 111.023,152.94196 110.47383,153.28045 110.27447,153.43363 110.08111,153.58015 109.83721,153.65026 109.85251,153.60316 109.84121,153.48313 109.88301,153.50897 113.92774,155.98363 112.02031,156.15646 114.19848,155.23337 115.43371,154.77225 116.72174,154.55989 118.02696,154.42684 118.95104,154.34764 119.87198,154.28486 120.7898,154.43084 121.27559,154.46984 121.68492,154.73584 122.11264,154.93592 122.2949,155.07362 122.54571,155.04999 122.74368,155.14209 122.78338,155.16049 122.81458,155.19329 122.8501,155.21889 122.8982,155.23689 122.9464,155.25479 122.99456,155.27279 123.37898,155.37752 123.73315,155.57598 124.13348,155.62603 124.58037,155.66853 125.02971,155.67353 125.47821,155.68193 125.81545,155.74623 126.08292,155.55871 126.39124,155.47161 126.59437,155.39631 126.79881,155.41601 127.01098,155.41091 127.40411,155.46471 127.91675,155.28043 128.27296,155.48081 129.55623,156.05103 128.36666,155.52731 125.11172,153.68579 125.07032,153.66239 125.22951,153.69579 125.32869,153.85284 125.40009,153.96611 125.41459,154.07168 125.44687,154.2 125.60309,154.88629 125.33552,155.51499 125.08158,156.14297 124.7133,157.00231 124.24493,157.81462 123.74567,158.60359 122.76399,160.10396 123.35757,159.60263 127.13151,160.70768 127.299,160.75668 127.31871,160.413 127.41741,160.26908 127.54084,160.08909 127.67097,159.9138 127.79776,159.73615 128.70761,158.43711 129.71151,157.20925 130.68067,155.95471 131.22313,155.32209 131.72251,154.63971 132.43548,154.18924 132.77517,154.02325 133.12312,153.90666 133.49611,153.84659 133.59531,153.85959 133.76913,153.77699 133.86439,153.82289 133.92509,153.85209 133.95269,153.92744 134.00987,153.96306 132.9078,153.33403 131.80573,152.705 130.70366,152.07597 131.09802,152.33338 131.03936,152.99633 131.06541,153.4126 131.13431,154.49275 131.06441,155.57663 130.93301,156.64932 130.86141,157.12134 130.78471,157.59255 130.70906,158.06393 130.69096,158.17656 130.67576,158.2897 130.65366,158.40161 130.64146,158.46361 130.54327,158.58923 130.60626,158.58507 130.67136,158.58107 130.64946,158.462 130.67106,158.40047 131.81096,159.0043 132.89381,159.73104 134.09076,160.21196 134.22021,160.26396 134.11026,159.93172 134.14756,159.79731 134.22276,159.52672 134.31695,159.26086 134.42687,159.00243 134.83904,158.03334 135.40349,157.14315 135.96257,156.25541 136.66698,155.29157 137.3982,154.2702 138.4543,153.66985 138.75426,153.57195 139.5333,153.17027 139.84951,153.3457 139.89541,153.3712 139.91781,153.4255 139.95196,153.46534 138.87604,152.88083 137.85519,152.18096 136.72418,151.71181 136.58454,151.65391 136.79138,152.00782 136.80188,152.15864 136.85978,152.99668 136.69356,153.8515 136.53381,154.66879 136.38314,155.32924 136.27087,155.99954 136.07067,156.64737 135.96986,157.0589 135.76742,157.43698 135.71397,157.85939 135.63727,159.48079 138.05113,160.24517 139.57691,160.19099 140.07986,160.18079 140.58284,160.17299 141.08589,160.16969 141.7349,160.19979 142.32081,159.99545 142.86807,159.66527 143.59608,159.07294 144.06992,158.2507 144.57404,157.47445 144.94986,156.87318 145.4,156.32828 145.87699,155.80599 146.34213,155.31437 146.82142,154.83614 147.26493,154.32494 147.35753,154.31174 147.87087,153.43827 147.67375,153.87497 146.53742,153.22772 145.40967,152.56518 144.26478,151.93319 144.24418,151.92189 144.27688,151.97869 144.28048,152.00189 144.28248,152.01339 144.27948,152.17446 144.28648,152.17857 145.43549,152.86896 146.59835,153.53604 147.75429,154.21477 147.94013,153.96051 148.12023,153.70792 148.3127,153.45631 148.86097,152.88736 149.477,152.38661 150.12452,151.93488 150.27177,151.83588 150.41565,151.77333 150.59019,151.83231 150.61769,151.84131 150.69219,151.88791 150.66679,151.87391 147.26266,149.99495 146.00248,149.91966 147.3724,150.01471 147.49437,150.28891 147.58426,150.5859 147.65114,150.88019 147.79034,151.34052 147.89349,151.803 147.95274,152.28113 148.05674,153.10624 148.00324,153.92959 147.91504,154.75233 147.86634,155.45917 147.79678,156.15696 147.64801,156.84956 147.59821,157.07584 147.55051,157.33708 147.4484,157.47527 147.28368,157.71793 147.1749,158.0034 147.0834,158.28147 146.26555,159.71339 150.07776,161.73944 150.66481,160.16501 150.72291,159.77335 150.82438,159.40092 150.96693,159.03069 151.41462,158.05764 151.98805,157.14238 152.5887,156.25684 153.15404,155.47165 153.81938,154.76305 154.52838,154.10663 154.95405,153.67816 155.37291,153.22053 155.97346,153.06677 156.55343,153.02537 157.19523,152.87828 157.72524,153.17191 156.65222,152.56833 155.58476,151.95475 154.50617,151.36116 154.48227,151.34806 154.64599,151.37216 154.76005,151.68218 154.86829,151.97631 154.87356,152.3025 154.89584,152.61056 154.86534,153.41076 154.76991,154.20794 154.63254,154.99649 154.54954,155.73675 154.37038,156.4591 154.23285,157.18967 154.16795,157.67463 154.03788,158.14593 153.94516,158.6255 153.83777,158.97131 153.71432,159.3106 153.61526,159.65909 153.21908,160.52478 148.89522,157.59278 157.09396,161.46632 157.13516,161.48582 157.07946,161.37612 157.07786,161.33052 157.07186,161.16464 157.09596,161.03113 157.11546,160.86233 157.30267,159.64194 157.67846,158.45897 158.06211,157.28872 158.59657,155.97695 159.11017,154.56672 160.11518,153.53299 160.83878,152.9531 161.80566,153.00268 162.68635,152.97738 163.21216,153.00998 164.22574,152.84474 164.62201,153.29431 163.5256,152.65578 162.4279,152.01945 161.33278,151.37872 161.30218,151.36082 161.42718,151.36212 161.47447,151.53377 161.55277,151.8183 161.49477,152.13957 161.46947,152.42528 161.34748,153.29608 161.11233,154.14463 160.91132,154.99899 160.77358,155.61579 160.73413,156.24974 160.70606,156.87959 160.71616,157.11427 160.71926,157.49939 160.96218,157.64041 164.42632,159.65123 163.1681,159.47347 164.66727,159.66128 165.32005,159.69878 165.90817,159.47896 166.45467,159.13942 167.24942,158.59838 167.78175,157.79473 168.32242,157.01988 169.0569,155.84738 169.95828,154.80553 170.9285,153.82508 172.02877,152.77926 173.18954,151.80441 174.36576,150.8463 174.81623,150.5206 175.23787,150.11596 175.74188,149.8682 175.80788,149.8357 176.30224,149.65362 176.35271,149.63481 177.4616,149.28444 178.63641,149.46584 179.76553,149.60971 179.91429,149.63511 180.33326,149.77557 180.2118,149.68601 177.11488,147.40211 177.61116,147.25234 174.92931,147.68235 173.86921,147.89719 172.81419,148.23386 171.8863,148.79799 171.27762,149.20206 170.89579,149.78715 170.62281,150.44989 170.33153,151.36368 170.27868,152.33219 170.29613,153.28475 170.38573,154.20676 170.64769,155.23194 171.30585,155.93008 171.4432,156.07578 171.61413,156.18568 171.76827,156.31348 172.99289,156.95875 175.08759,158.94007 176.96485,158.50012 177.8486,158.293 178.52401,157.70598 179.20821,157.15242 180.33188,156.07005 181.29119,154.80613 181.84992,153.34344 182.11799,152.54782 182.18777,151.70679 182.21796,150.87312 182.24526,150.72195 182.20576,150.55396 182.23876,150.40238 182.24276,150.38378 182.28096,150.35908 182.26376,150.35088 178.60202,148.5991 178.63568,147.39867 178.70127,148.98474 178.63887,149.97856 178.56121,150.97053 178.52064,151.96594 178.58314,152.80617 178.45014,154.07843 178.90819,154.82492 179.01545,154.9997 179.17775,155.13404 179.31252,155.2886 180.63954,156.01043 181.91297,156.84095 183.29358,157.4541 183.75698,157.6599 185.28068,157.3868 185.62877,157.3137 187.35455,156.95104 188.98047,156.29321 190.60817,155.63569 192.65802,154.73037 191.67393,155.17253 193.56165,154.31192 193.56165,154.31192 190.55356,152.32499 190.55356,152.32499 V 152.32499 C 188.74668,153.22994 189.69512,152.77314 187.70455,153.68765 186.0588,154.31446 184.41899,154.95884 182.66141,155.20388 182.21718,155.26578 181.76639,155.30138 181.31819,155.28398 180.97568,155.27068 180.05436,154.87775 180.30431,155.11231 181.04359,155.8061 182.01622,156.19899 182.87217,156.74232 182.72137,156.63845 182.54363,156.56556 182.41977,156.4307 181.89413,155.85835 181.9893,154.45035 181.93769,153.72542 181.98169,152.73796 182.04603,151.75021 182.19944,150.77274 182.3154,149.17819 182.28924,150.60068 178.65364,148.63762 178.64174,148.63162 178.67874,148.60352 178.68684,148.61432 178.73444,148.67822 178.71124,148.77208 178.71634,148.85162 178.72134,148.93052 178.72234,149.00967 178.72634,149.08869 178.73674,149.89225 178.71284,150.70143 178.48489,151.47892 178.00309,152.89594 177.14283,154.146 176.03613,155.15391 175.19066,155.78603 174.33603,156.41786 173.21592,156.24431 173.00844,156.21211 172.43786,155.95098 172.6105,156.07048 173.48607,156.67657 174.43467,157.1697 175.34676,157.71931 175.18212,157.62811 175.0007,157.56208 174.85284,157.44559 174.17803,156.91398 173.83366,155.84234 173.74324,155.02786 173.70484,154.13231 173.76194,153.21868 174.0283,152.35777 174.27345,151.77673 174.61649,151.26049 175.15693,150.91297 176.04403,150.38335 177.04163,150.05331 178.05988,149.88939 178.64488,149.81599 179.23872,149.81759 179.82099,149.74349 179.96819,149.72479 180.36697,149.74375 180.25537,149.64609 177.62799,147.34366 178.32438,147.48545 176.68256,147.31847 175.49681,147.21379 174.25978,147.04995 173.11301,147.45767 172.34726,147.75968 171.71611,148.25108 171.12226,148.81921 169.96896,149.81462 168.80259,150.79663 167.70161,151.85053 166.71844,152.85039 165.76391,153.87518 165.0008,155.059 164.4752,155.77823 163.96857,156.54093 163.1915,157.01448 162.66987,157.27274 162.09945,157.43472 161.5235,157.25252 160.23791,156.70238 161.5842,157.27252 164.6484,159.08429 164.82849,159.19078 163.67516,158.66729 164.2048,158.67445 164.2118,158.06122 164.2303,157.44614 164.34728,156.84206 164.51671,155.96786 164.74975,155.10907 164.92274,154.23568 165.2566,151.91906 164.87064,152.54901 161.54343,150.80655 160.8882,150.68529 160.22829,150.6888 159.56366,150.72555 158.57666,150.76905 157.54354,150.77595 156.80405,151.52641 155.83948,152.6649 155.3804,154.12569 154.76818,155.46568 154.32184,156.62857 153.94214,157.81779 153.64756,159.02878 153.63656,159.08728 153.51026,159.68261 153.53731,159.69909 154.32202,160.17695 156.71705,162.99572 157.10614,161.54301 157.17834,161.17781 157.30108,160.82865 157.41806,160.4758 157.50416,159.99068 157.66009,159.52138 157.69091,159.02721 157.80894,158.29 157.98585,157.56384 158.0667,156.8206 158.20592,156.0069 158.31115,155.18948 158.38332,154.36678 158.32792,151.85842 157.92119,152.58409 154.61772,150.75762 153.99052,150.66472 153.32498,150.71682 152.71071,150.86162 152.11159,151.12521 151.67963,151.60517 151.23344,152.07263 150.51317,152.75689 149.82569,153.48644 149.26447,154.30892 148.66671,155.2235 148.08521,156.15379 147.56644,157.11513 147.387,157.4758 147.21306,157.84877 147.18665,158.25551 147.16995,158.34271 147.18565,158.30381 147.14295,158.3735 148.27881,159.03525 149.41468,159.697 150.55054,160.35875 150.57194,160.37175 150.50134,160.41785 150.48634,160.39785 150.44164,160.33815 150.6247,160.23889 150.55034,160.18343 150.62174,159.94532 150.71796,159.71062 150.86639,159.51006 151.05711,159.27441 151.05885,158.99399 151.11211,158.70174 151.24569,157.98886 151.31972,157.27565 151.35932,156.55111 151.43972,155.71163 151.52672,154.87341 151.46267,154.02891 151.43347,153.55389 151.39657,153.05232 151.20149,152.61332 151.16109,152.28597 151.05514,151.97978 150.98585,151.66439 150.96575,149.92737 148.08608,148.80831 146.80968,149.83942 146.17808,150.35479 145.55372,150.88087 144.95394,151.43249 144.79439,151.60008 144.64359,151.77075 144.49866,151.95078 144.46946,151.98698 144.47026,152.00968 144.48656,151.93768 145.60229,152.62448 146.70939,153.32549 147.83374,153.99808 147.87074,154.02028 147.83674,153.91178 147.83674,153.86862 147.83774,153.80532 147.89424,153.71282 147.84074,153.67865 146.7109,152.95466 145.55012,152.28013 144.4048,151.58087 144.23267,151.81723 144.09543,152.07779 143.90466,152.30151 143.47179,152.81599 143.00385,153.29695 142.53697,153.78039 142.04717,154.31942 141.58483,154.88272 141.22813,155.5213 140.76395,156.25172 140.32604,157.03577 139.58793,157.5273 139.06138,157.79277 138.50649,157.89864 137.91514,157.86815 137.40646,157.87015 136.89686,157.87615 136.38881,157.84875 135.14215,157.66612 132.22211,155.39459 139.45186,159.69966 139.47676,159.71446 139.39436,159.70666 139.36606,159.71266 139.33486,159.71866 139.30296,159.74876 139.27356,159.73646 139.24926,159.72626 139.25516,159.68706 139.24586,159.66236 139.18086,159.26337 139.45727,158.92188 139.52623,158.53812 139.7276,157.86343 139.78696,157.16278 139.92068,156.47195 140.06603,155.61638 140.21593,154.75788 140.26424,153.88975 140.27424,153.71829 140.40075,153.48484 140.26924,153.37459 139.20605,152.48428 137.98223,151.80562 136.83872,151.02113 136.25259,151.04513 135.7028,151.29603 135.18901,151.56119 134.13334,152.25185 133.45256,153.36811 132.73948,154.38214 132.18975,155.2968 131.64933,156.21562 131.14455,157.15616 131.00222,157.42136 130.85148,157.68286 130.72899,157.95778 130.66669,158.0977 130.47377,158.299 130.59198,158.3964 131.63689,159.25736 132.85074,159.88985 133.98012,160.63657 134.12648,160.37375 134.11354,160.17948 134.14778,159.87604 134.20208,159.39444 134.27176,158.91477 134.33422,158.4342 134.46497,157.35276 134.563,156.2613 134.55305,155.1713 134.54225,154.63106 134.54805,154.06818 134.38803,153.54835 132.34559,152.35926 131.9115,151.16887 130.24724,151.59025 129.84885,151.69844 129.45969,151.84903 129.11499,152.07984 128.44173,152.62497 127.92852,153.32663 127.40027,154.00714 126.465,155.28686 125.49176,156.53821 124.51133,157.78333 124.37299,157.9557 124.23634,158.12943 124.09632,158.30044 123.98796,158.43278 123.63373,158.58515 123.76622,158.69333 124.77429,159.51633 126.01615,160.00642 127.08867,160.74344 127.14157,160.77974 127.03057,160.87577 126.9691,160.89429 126.85005,160.93019 127.33629,160.46241 127.14062,160.56302 127.58122,159.72116 128.0538,158.89512 128.44803,158.02999 128.74142,157.35498 129.10664,156.6864 128.99071,155.92946 128.79569,154.11525 127.45719,153.50081 125.121,153.0839 124.68566,153.0973 124.24991,153.0961 123.81442,153.1005 123.56428,153.1075 123.33877,153.1446 123.10863,153.24601 122.83783,153.35119 122.57918,153.38361 122.28684,153.35522 121.85423,153.35022 121.41634,153.33992 120.99452,153.23429 120.62246,153.1044 120.25187,152.96966 119.88706,152.82145 119.60809,152.69275 119.29321,152.64628 119.02958,152.4758 118.59953,152.26065 118.13503,152.13291 117.65492,152.09362 116.74023,152.01352 115.82567,152.12852 114.91526,152.21876 113.57761,152.38456 112.25509,152.62216 110.98182,153.07932 110.29862,153.34193 109.74357,153.5842 109.81538,153.64096 112.94005,156.1107 112.02335,156.81799 113.15359,155.85688 113.37549,155.72976 113.57091,155.56956 113.77563,155.41755 114.31758,155.10625 114.8946,154.85473 115.46684,154.60526 116.07907,154.40851 116.72842,154.3413 117.36924,154.32653 118.5033,154.35163 119.68096,154.35063 120.74833,154.78006 119.77684,154.20623 118.80221,153.63769 117.83387,153.05855 117.70922,152.98405 118.09291,153.19062 118.21698,153.26612 118.33423,153.33742 118.44397,153.42048 118.55687,153.49852 118.64687,153.56072 118.76306,153.59702 118.82556,153.68682 118.9364,153.84599 118.85836,154.17593 118.84026,154.32728 118.64006,155.50518 118.25447,156.61467 117.55385,157.59703 116.61683,158.83791 115.54813,160.09656 114.02895,160.60789 113.20973,160.72509 112.42739,160.63219 111.63529,160.38871 111.18382,160.2755 110.73534,160.14311 110.33738,159.89428 111.40073,160.51272 112.46408,161.13116 113.52743,161.7496 113.33738,161.6166 113.11974,161.54856 112.94306,161.39634 112.86606,161.32994 112.61811,161.05199 112.55577,160.98333 111.99919,160.28968 112.03782,160.08159 112.05113,159.17748 112.05813,158.30388 112.05813,157.41229 112.27255,156.56029 112.4513,156.00657 112.66805,155.4685 112.9553,154.96111 113.84914,153.87038 109.40992,151.5078 109.62937,152.97331 109.62737,153.09795 109.61567,153.16448 109.49401,153.23114 109.05337,153.55356 108.75923,154.00636 108.48231,154.47114 107.91242,155.28603 107.27059,156.03939 106.50515,156.67894 106.01115,157.11688 105.49965,157.53579 104.92235,157.86131 104.39425,158.19522 103.87704,158.54112 103.44127,158.99374 102.83407,159.59686 102.22137,160.19912 101.52034,160.69491 100.94345,161.0859 100.27502,161.57937 99.54698,161.53862 98.18627,161.0686 99.63658,161.55962 102.73002,163.41635 102.75152,163.42925 102.68202,163.43165 102.65932,163.44245 102.63152,163.45575 102.60852,163.49795 102.57912,163.48865 102.52552,163.47155 102.64042,163.3248 102.57212,163.31991 102.56412,162.983 102.55862,162.64599 102.56612,162.30898 102.58922,161.68122 102.63032,161.0521 102.76856,160.43737 102.92939,159.71038 103.06055,158.97775 103.24956,158.25704 103.41178,157.43491 103.61087,156.62056 103.78049,155.79988 103.94522,154.93602 104.1608,154.07891 104.43563,153.24352 104.69701,152.3609 105.00452,151.49038 105.34928,150.637 105.98083,149.11903 106.78281,147.68067 107.68842,146.30896 108.15941,145.64425 108.52525,145.0892 109.0644,144.47845 109.26115,144.25557 109.47342,144.04594 109.69492,143.84763 109.80025,143.75333 110.15111,143.69305 110.04173,143.60346 106.54852,140.74228 106.42212,140.30658 106.86041,141.59477 106.52995,142.65929 105.67691,143.47951 105.08732,144.40043 104.22201,145.54485 103.40383,146.72559 102.63764,147.93872 101.86165,149.2291 101.06564,150.50723 100.20507,151.74346 99.47443,152.77275 98.70337,153.77718 97.83573,154.69591 97.23812,155.31098 96.62024,156.10961 95.72667,156.25347 95.6173,156.23767 95.56531,156.23967 95.46455,156.18547 95.43925,156.17187 95.37485,156.11407 95.39935,156.12897 96.50014,156.79557 97.59585,157.4705 98.6941,158.14126 98.592,158.17806 98.6203,158.19526 98.6129,158.08426 98.45315,156.20808 98.34745,156.93157 95.07572,155.28995 94.85583,155.1884 94.64848,155.14312 94.41811,155.07974 93.16706,154.50311 94.31711,155.02964 97.62324,156.92972 97.68464,156.96502 97.49725,156.86512 97.43568,156.83022 93.84476,154.79434 95.13772,155.4383 93.85328,154.80044 102.44777,159.73252 93.60701,154.6415 93.29663,154.51023 93.04502,154.38347 92.78466,154.38916 92.5083,154.40888 92.14435,154.43228 91.77907,154.46208 91.44324,154.61853 90.79274,154.89921 90.16766,155.24191 89.54274,155.57364 88.801896,156.02723 88.061915,156.48592 87.373556,157.01749 86.982904,157.3908 86.595067,157.77175 86.279181,158.2124 85.864942,158.70083 85.489106,159.22262 85.186465,159.7883 84.665556,160.7117 84.194188,161.6658 83.823409,162.66005 83.482681,163.44931 83.18176,164.2584 82.769774,165.01459 82.445665,165.76084 82.206318,166.53923 81.903933,167.29432 81.627412,168.1257 81.370266,168.96514 81.042717,169.77787 80.758526,170.53356 80.50715,171.29795 80.280294,172.07308 79.865702,173.27775 79.493833,174.49564 79.121226,175.71372 78.957724,176.27142 78.821389,176.84557 78.631879,177.39521 78.594449,177.50376 78.406795,177.64766 78.500701,177.71374 79.595904,178.48448 80.805293,179.07884 81.968164,179.7431 81.981364,179.7511 81.972164,179.713 81.974264,179.6979 82.353631,178.72031 82.57333,177.68047 82.984083,176.71261 83.751356,174.45798 84.522458,172.20428 85.41644,169.99567 86.546578,167.0603 87.738883,164.14577 88.560851,161.10279 89.3657,158.44191 90.10571,155.74622 91.20955,153.18974 91.30225,153.01206 91.63903,152.78789 91.48755,152.65671 88.118243,149.73914 88.685859,149.49528 87.850501,151.07501 87.663853,151.4251 87.439272,151.77093 87.332192,152.15457 87.221726,152.54291 87.039857,152.89554 86.861049,153.25564 86.681899,153.64075 86.582366,154.06409 86.446682,154.4654 86.350962,154.7707 86.309337,155.08575 86.180226,155.37805 85.975877,155.74405 85.731368,156.09106 85.481599,156.42686 85.140159,156.91997 84.800664,157.41537 84.492539,157.93026 83.901629,158.98801 83.271754,160.03474 82.522044,160.98799 82.054403,161.57859 81.553351,162.31192 80.773759,162.48713 79.63794,162.32961 76.292564,159.32826 83.647999,164.24396 84.024469,164.46262 82.639992,163.70487 82.991661,163.77045 82.413842,163.34085 82.003817,162.7526 81.67348,162.11667 81.409267,161.63657 81.236708,161.13746 81.205575,160.58583 81.056823,159.2819 81.207975,157.97318 81.296155,156.66883 81.364635,155.96265 81.396025,155.54496 81.498455,154.84845 81.532355,154.61795 81.794841,154.31162 81.618089,154.15984 80.582214,153.27032 79.319553,152.68495 78.152902,151.97559 78.078882,151.93059 78.3259,152.46223 78.148302,152.23542 78.079412,153.42384 77.893627,154.60299 77.587346,155.75409 77.379105,156.51654 77.326313,156.8135 77.005662,157.55138 76.43825,158.85712 75.592811,160.02671 74.610624,161.04983 73.41198,162.16206 72.373956,163.03202 70.65236,162.67843 69.156683,162.12531 70.214988,162.48971 73.300929,164.3593 73.371949,164.4023 73.145706,164.2938 73.081875,164.24067 72.813704,164.01754 72.950255,163.61246 72.960542,163.32452 73.154559,161.85836 73.54093,160.43344 74.33305,159.16645 74.495073,158.91998 74.644986,158.6651 74.819119,158.42703 75.752775,157.15056 76.998706,156.13502 78.287793,155.23932 79.091653,154.71703 79.8844,154.21053 80.766645,153.82794 80.924972,153.75934 81.089873,153.70693 81.25156,153.64661 81.34171,153.61301 81.596365,153.60731 81.522147,153.5461 80.51486,152.71507 79.405718,152.01583 78.347504,151.2507 78.008253,151.312 77.661244,151.35184 77.342315,151.49217 76.808457,151.75604 76.457538,152.16759 76.109481,152.64829 74.7028,154.28597 73.29302,155.92409 71.788481,157.47346 69.466931,159.73735 67.035572,161.99505 63.962315,163.18327 63.556079,163.28885 63.159251,163.44155 62.74361,163.50001 62.434306,163.54351 61.572066,163.28021 61.806664,163.48641 62.639464,164.21847 63.716604,164.61345 64.66459,165.18859 64.793776,165.26699 64.388312,165.06247 64.263659,164.97706 64.155286,164.90286 64.059912,164.80986 63.97084,164.7133 63.8927,164.6286 63.833262,164.52839 63.764473,164.43593 63.530853,163.5054 63.701673,162.53699 63.818283,161.59883 64.074652,160.27708 64.513399,159.00337 65.133265,157.8055 65.839896,156.7141 66.699556,155.71512 67.960478,155.26313 68.105285,155.23063 68.248165,155.18793 68.394895,155.16563 68.501342,155.14953 68.800086,155.21743 68.717422,155.14843 67.325124,153.98674 66.784003,152.60658 65.504002,152.88087 64.884382,152.99435 64.269647,153.12835 63.666307,153.3114 63.031958,153.48058 62.399876,153.61396 61.914532,154.08974 61.390046,154.50616 60.925298,154.99548 60.562485,155.56062 60.134291,156.22963 59.749,156.92237 59.344235,157.60584 58.786795,158.48601 58.214215,159.3549 57.530183,160.14415 56.883271,160.8777 56.181983,161.56686 55.375996,162.12665 55.018768,162.35252 54.648466,162.61249 54.218073,162.67637 54.115137,162.69167 53.819727,162.61087 53.905971,162.66937 56.29583,164.28293 58.173882,165.03397 56.806344,164.47799 56.445661,163.78084 56.998447,162.68433 56.994441,161.93449 57.180076,160.86541 57.433179,159.81132 57.70149,158.7603 57.75948,158.55947 57.863246,158.21133 57.850421,158.20249 56.085637,156.98498 55.095286,155.04877 54.134584,156.40767 53.897578,156.78138 53.77964,157.21303 53.51053,157.56979 53.265578,158.01598 53.032687,158.47362 52.719709,158.87698 52.337169,159.37049 51.900461,159.82119 51.507986,160.30699 51.10524,160.78882 50.709894,161.29021 50.161934,161.6164 49.678866,161.87319 49.196657,162.13178 48.727667,162.41381 48.672707,162.44451 48.617757,162.47521 48.5628,162.50591 48.51854,162.52601 48.47284,162.54321 48.430006,162.56621 48.388476,162.58851 48.349406,162.61511 48.310303,162.64151 48.286433,162.65761 48.264113,162.71081 48.241303,162.69331 48.114428,162.59591 48.400456,162.61851 48.227363,162.61391 48.123318,162.60691 48.035932,162.58361 47.954866,162.51401 49.068394,163.15412 50.181919,163.79423 51.295447,164.43435 51.028978,164.44335 50.853487,163.99933 50.671631,163.84465 50.41039,163.46152 50.193659,163.07603 50.164983,162.60143 50.167383,161.56501 50.202603,160.5287 50.300416,159.49639 50.469064,157.72873 50.657929,155.96036 50.933362,154.20605 51.016712,153.75206 51.106413,153.29917 51.182465,152.8439 51.201225,152.73155 51.322438,152.57254 51.230315,152.50555 49.756068,151.43354 48.394628,149.17394 47.643893,150.53294 47.496364,150.79456 47.336913,151.04874 47.185032,151.30741 47.161672,151.56231 47.07465,151.80142 46.989513,152.04135 46.765027,152.72099 46.545087,153.40357 46.397465,154.10469 46.236985,154.75074 46.153329,155.41604 45.9243,156.04541 45.39243,157.2844 44.466565,158.29414 43.642751,159.34469 41.760547,161.67294 39.804916,163.96798 37.520462,165.91552 37.520462,165.91552 40.83889,167.94905 40.83889,167.94905 Z" />
      <path
         id="path314"
         d="M 46.142026,170.74354 C 49.462533,170.58078 52.788774,170.6331 56.111917,170.58575 58.096408,170.55895 60.080834,170.52265 62.065441,170.50455 62.065441,170.50455 58.885113,168.22164 58.885113,168.22164 V 168.22164 C 57.030598,168.43262 55.158486,168.4635 53.295912,168.54677 49.860419,168.60937 46.421807,168.59527 42.988377,168.45227 42.988377,168.45227 46.142026,170.74353 46.142026,170.74353 Z" />
      <path
         id="path316"
         d="M 125.72518,150.37561 C 127.94764,150.30911 130.16958,150.27375 132.38967,150.13857 134.08347,149.981 135.77437,149.79518 137.4685,149.64086 137.568,149.63186 137.66745,149.62326 137.76693,149.61446 137.76693,149.61446 134.56406,147.34873 134.56406,147.34873 V 147.34873 C 134.47436,147.36403 134.3846,147.37923 134.29486,147.39453 132.6779,147.65432 131.05226,147.86022 129.4212,148.00847 127.13582,148.13919 124.84535,148.19266 122.55779,148.07437 122.55779,148.07437 125.72518,150.37561 125.72518,150.37561 Z" />
      <path
         id="path318"
         d="M 151.36154,147.73227 C 153.58415,147.65207 155.80849,147.65247 158.03179,147.59544 160.02177,147.54644 162.01166,147.54744 163.99303,147.34121 163.99303,147.34121 160.83517,145.10785 160.83517,145.10785 V 145.10785 C 158.94879,145.39935 157.03951,145.43197 155.13491,145.49958 152.81908,145.53298 150.50219,145.50158 148.1873,145.42608 148.1873,145.42608 151.36154,147.7323 151.36154,147.7323 Z" />
      <path
         id="path466"
         d="M 20.921962,187.41978 C 23.793086,187.2541 26.657371,186.98513 29.524375,186.75806 33.367149,186.49555 37.191246,186.03149 41.021833,185.64027 43.924415,185.24232 46.830141,184.88451 49.744809,184.58931 52.228911,184.33819 54.72373,184.23536 57.219048,184.19515 60.106213,184.10285 62.99175,184.18145 65.87791,184.26035 69.291234,184.37497 72.684528,184.7629 76.076415,185.13658 80.326327,185.51634 84.550987,186.07733 88.762,186.75766 91.991335,187.2492 95.196053,187.88717 98.415826,188.43352 102.11804,189.06174 105.83596,189.60783 109.54869,190.16948 115.99401,191.14947 122.48422,191.81158 128.98869,192.23344 132.49073,192.41736 135.99863,192.52149 139.50573,192.52796 140.36583,192.52996 141.22769,192.56486 142.08596,192.50876 143.19918,192.43596 144.3037,192.2641 145.41258,192.14177 146.90946,191.88121 148.40909,191.63593 149.90323,191.36008 151.63098,191.04109 153.35277,190.69061 155.07782,190.35733 161.02328,189.20868 166.96532,188.06086 172.88358,186.77848 176.7509,185.93245 180.61097,184.99126 184.35087,183.68158 186.07295,183.03567 187.59891,181.98379 189.21161,181.11684 189.81238,180.79388 190.42327,180.49011 191.0291,180.17675 193.51324,178.90272 196.05081,177.74044 198.58404,176.56959 199.66398,176.03748 200.75119,175.52089 201.83325,174.99285 201.83325,174.99285 198.60258,172.86804 198.60258,172.86804 V 172.86804 C 197.54127,173.41701 196.4614,173.92907 195.39828,174.47455 193.00356,175.78443 190.61492,177.10836 188.14936,178.28263 185.85636,179.39964 183.5538,180.49702 181.25546,181.60219 177.7518,183.08803 174.06009,184.06957 170.39209,185.05451 162.89443,186.94972 155.31505,188.66131 147.6574,189.77782 146.07813,190.00808 144.48845,190.16031 142.90398,190.35155 141.73871,190.42295 140.57479,190.52199 139.40815,190.56586 138.54961,190.59816 137.68988,190.58246 136.83073,190.57996 133.34653,190.56976 129.86206,190.47074 126.38158,190.31491 119.94115,189.94468 113.51979,189.31907 107.13801,188.36306 100.10092,187.33146 93.094364,186.11584 86.11147,184.76442 85.600391,184.67692 81.816148,184.02447 81.219931,183.93862 78.590335,183.55997 75.930489,183.40668 73.296123,183.06699 69.872817,182.64701 66.444026,182.24616 62.992846,182.15179 60.074804,182.06599 57.156071,181.97445 54.236405,182.03786 51.749988,182.10346 49.264519,182.1914 46.792652,182.49018 43.891102,182.79038 41.002693,183.17197 38.113509,183.57528 34.330023,184.01572 30.552493,184.53278 26.748827,184.77019 23.753411,184.94075 20.749166,185.20974 17.747714,185.11362 17.747714,185.11362 20.921962,187.41985 20.921962,187.41985 Z" />
      <path
         id="path1713"
         d="M 372,106 382.31601,63.881936 353.46846,31.506474 396.71294,28.302382 418.58945,-9.137828 435,30.999995 477.36798,40.236134 444.26578,68.246765 448.57411,111.39522 411.70527,88.568922 Z"
         transform="matrix(0.44566076,0,0,0.46787047,-8.2137926,77.606727)" />
      <path
         id="path1715"
         d="M 140.10456,106.91551 C 141.53248,105.80966 143.12126,104.95397 144.6845,104.08181 145.78813,103.53369 146.90587,103.02555 148.0472,102.57112 148.0472,102.57112 142.59348,98.74218 142.59348,98.74218 V 98.74218 C 141.47537,99.259932 140.36408,99.793022 139.26803,100.36082 137.65062,101.26465 136.02723,102.16476 134.46514,103.17087 134.46514,103.17087 140.10456,106.91551 140.10456,106.91551 Z" />
      <path
         id="path1717"
         d="M 143.77233,116.80103 C 145.85005,115.62597 147.96066,114.50438 150.12312,113.51017 151.36716,112.91853 150.77455,113.19903 151.90072,112.66804 151.90072,112.66804 146.45406,108.89005 146.45406,108.89005 V 108.89005 C 145.38473,109.45702 145.95156,109.16213 144.75203,109.77149 142.59425,110.84912 140.47016,112.00692 138.24779,112.93591 138.24779,112.93591 143.77233,116.80103 143.77233,116.80103 Z" />
      <path
         id="path1719"
         d="M 145.53712,129.7935 C 147.15381,128.46798 149.02946,127.53672 150.85904,126.58136 151.48139,126.26122 152.12133,125.98987 152.77507,125.75123 152.77507,125.75123 147.29445,121.88987 147.29445,121.88987 V 121.88987 C 146.6586,122.1796 146.03544,122.49502 145.42104,122.83256 143.57141,123.85415 141.73289,124.90125 139.94168,126.03226 139.94168,126.03226 145.53712,129.7935 145.53712,129.7935 Z" />
    </g>
  </g>
</svg>
